{
    "asset" : {
        "generator" : "Khronos glTF Blender I/O v1.8.19",
        "version" : "2.0"
    },
    "scene" : 0,
    "scenes" : [
        {
            "name" : "Scene",
            "nodes" : [
                0
            ]
        }
    ],
    "nodes" : [
        {
            "mesh" : 0,
            "name" : "17102_Acorn_v1_NEW",
            "translation" : [
                -0.14087435603141785,
                0,
                0.1622249037027359
            ]
        }
    ],
    "materials" : [
        {
            "doubleSided" : true,
            "name" : "Default OBJ",
            "pbrMetallicRoughness" : {
                "baseColorFactor" : [
                    0.8000000715255737,
                    0.5398784279823303,
                    0.053385909646749496,
                    1
                ],
                "roughnessFactor" : 0.26363635063171387
            }
        }
    ],
    "meshes" : [
        {
            "name" : "17102_Acorn_v1_NEW",
            "primitives" : [
                {
                    "attributes" : {
                        "POSITION" : 0,
                        "NORMAL" : 1
                    },
                    "indices" : 2,
                    "material" : 0
                }
            ]
        }
    ],
    "accessors" : [
        {
            "bufferView" : 0,
            "componentType" : 5126,
            "count" : 33284,
            "max" : [
                1.188099980354309,
                4.335899829864502,
                0.913100004196167
            ],
            "min" : [
                -0.926800012588501,
                -0.00019999999494757503,
                -1.2632999420166016
            ],
            "type" : "VEC3"
        },
        {
            "bufferView" : 1,
            "componentType" : 5126,
            "count" : 33284,
            "type" : "VEC3"
        },
        {
            "bufferView" : 2,
            "componentType" : 5123,
            "count" : 199680,
            "type" : "SCALAR"
        }
    ],
    "bufferViews" : [
        {
            "buffer" : 0,
            "byteLength" : 399408,
            "byteOffset" : 0
        },
        {
            "buffer" : 0,
            "byteLength" : 399408,
            "byteOffset" : 399408
        },
        {
            "buffer" : 0,
            "byteLength" : 399360,
            "byteOffset" : 798816
        }
    ],
    "buffers" : [
        {
            "byteLength" : 1198176,
            "uri" : "data:application/octet-stream;base64,"
        }
    ]
}
